<svg id="svg" version="1.1" xmlns="http://www.w3.org/2000/svg" xmlns:xlink="http://www.w3.org/1999/xlink" width="400" height="400" viewBox="0, 0, 400,400"><g id="svgg"><path id="path0" d="M269.667 324.310 L 269.667 327.287 268.586 326.977 C 265.224 326.013,260.245 328.234,260.917 330.398 C 260.962 330.546,260.862 330.667,260.693 330.667 C 259.870 330.667,259.605 334.682,260.254 337.320 C 261.272 341.463,264.636 343.157,268.315 341.380 C 269.391 340.860,269.667 340.823,269.667 341.197 C 269.667 341.559,270.238 341.667,272.167 341.667 L 274.667 341.667 274.667 331.500 L 274.667 321.333 272.167 321.333 L 269.667 321.333 269.667 324.310 M103.000 332.000 L 103.000 341.667 109.667 341.667 L 116.333 341.667 116.333 339.833 L 116.333 338.000 112.333 338.000 L 108.333 338.000 108.333 330.167 L 108.333 322.333 105.667 322.333 L 103.000 322.333 103.000 332.000 M186.667 332.000 L 186.667 341.667 193.333 341.667 L 200.000 341.667 200.000 339.833 L 200.000 338.000 196.000 338.000 L 192.000 338.000 192.000 335.500 L 192.000 333.000 195.833 333.000 L 199.667 333.000 199.667 331.167 L 199.667 329.333 195.833 329.333 L 192.000 329.333 192.000 327.667 L 192.000 326.000 196.000 326.000 L 200.000 326.000 200.000 324.167 L 200.000 322.333 193.333 322.333 L 186.667 322.333 186.667 332.000 M121.167 327.295 C 118.461 328.539,117.492 330.222,117.158 334.253 C 116.646 340.443,123.874 344.029,131.083 341.161 C 131.703 340.914,131.985 337.000,131.383 337.000 C 130.740 337.000,129.000 337.754,129.000 338.033 C 129.000 338.198,128.887 338.308,128.750 338.276 C 128.612 338.245,127.821 338.332,126.990 338.470 C 125.047 338.792,123.049 338.036,122.280 336.688 C 121.510 335.337,121.524 335.333,127.102 335.333 L 132.092 335.333 131.862 333.093 C 131.736 331.860,131.478 330.756,131.288 330.639 C 131.098 330.521,130.966 330.367,130.993 330.296 C 131.971 327.764,124.865 325.593,121.167 327.295 M136.288 326.823 C 136.172 326.939,135.647 327.066,135.122 327.106 C 134.203 327.176,134.163 327.251,134.067 329.089 C 133.957 331.181,134.121 331.320,135.895 330.641 C 138.103 329.795,141.388 330.126,141.814 331.238 C 142.077 331.923,142.164 331.887,139.667 332.141 C 136.109 332.502,133.288 334.033,133.050 335.731 C 132.844 337.201,132.816 338.209,132.975 338.500 C 133.075 338.683,133.169 338.908,133.185 339.000 C 133.329 339.826,134.247 340.981,135.145 341.465 C 136.781 342.346,141.333 341.965,141.333 340.946 C 141.333 340.793,141.483 340.667,141.667 340.667 C 141.850 340.667,142.000 340.892,142.000 341.167 C 142.000 341.563,142.480 341.667,144.317 341.667 L 146.635 341.667 146.734 336.250 C 146.884 328.059,146.076 326.915,140.000 326.723 C 138.074 326.662,136.404 326.707,136.288 326.823 M167.833 327.333 C 166.633 328.128,166.333 328.162,166.333 327.500 C 166.333 327.100,165.833 327.000,163.833 327.000 L 161.333 327.000 161.333 334.333 L 161.333 341.667 163.833 341.667 L 166.333 341.667 166.333 336.387 L 166.333 331.107 167.682 330.662 C 170.120 329.857,170.431 330.550,170.361 336.635 L 170.304 341.667 173.018 341.667 L 175.733 341.667 175.616 335.778 C 175.530 331.432,175.390 329.852,175.081 329.749 C 174.851 329.672,174.751 329.467,174.859 329.292 C 175.938 327.546,170.008 325.893,167.833 327.333 M222.833 326.814 C 222.650 326.884,222.124 327.024,221.664 327.124 C 219.845 327.519,217.736 330.100,217.447 332.283 C 216.903 336.382,217.148 337.406,219.207 339.641 C 221.454 342.081,227.032 342.837,230.750 341.206 C 232.399 340.483,232.744 337.000,231.167 337.000 C 230.708 337.000,230.333 337.118,230.333 337.261 C 230.333 338.337,225.175 338.852,223.433 337.951 C 222.855 337.652,222.000 336.159,222.000 335.450 C 222.000 335.386,224.263 335.333,227.030 335.333 L 232.059 335.333 231.912 333.417 C 231.540 328.574,229.962 326.884,225.693 326.760 C 224.303 326.719,223.017 326.744,222.833 326.814 M279.167 326.958 C 278.209 327.162,278.162 327.253,278.065 329.128 C 277.967 331.023,277.988 331.079,278.732 330.896 C 282.354 330.004,282.651 329.970,283.887 330.313 C 286.344 330.992,286.708 332.000,284.497 332.000 C 282.840 332.000,279.965 332.676,279.003 333.292 C 277.596 334.193,276.918 334.931,277.151 335.308 C 277.273 335.505,277.238 335.667,277.073 335.667 C 276.907 335.667,276.746 336.417,276.713 337.333 C 276.678 338.339,276.797 339.000,277.014 339.000 C 277.211 339.000,277.274 339.159,277.154 339.354 C 276.882 339.793,277.865 340.913,279.066 341.534 C 280.382 342.215,282.956 342.118,284.422 341.333 C 285.455 340.779,285.667 340.750,285.667 341.166 C 285.667 341.567,286.165 341.667,288.167 341.667 L 290.667 341.667 290.667 336.020 C 290.667 332.554,290.536 330.292,290.328 330.163 C 290.142 330.048,290.072 329.820,290.172 329.657 C 291.336 327.774,283.905 325.951,279.167 326.958 M149.667 334.333 L 149.667 341.667 152.167 341.667 L 154.667 341.667 154.667 336.658 L 154.667 331.650 155.583 331.264 C 156.087 331.052,157.287 330.883,158.250 330.888 L 160.000 330.899 160.000 328.907 L 160.000 326.915 158.298 327.079 C 157.362 327.169,156.499 327.375,156.381 327.538 C 155.687 328.495,154.667 328.672,154.667 327.836 C 154.667 327.018,154.613 327.000,152.167 327.000 L 149.667 327.000 149.667 334.333 M201.167 327.583 C 201.298 327.904,201.545 328.649,201.715 329.238 C 201.885 329.827,202.172 330.400,202.351 330.511 C 202.531 330.622,202.591 330.852,202.486 331.023 C 202.380 331.194,202.462 331.333,202.667 331.333 C 202.872 331.333,202.957 331.467,202.856 331.631 C 202.645 331.971,203.704 335.109,204.085 335.278 C 204.224 335.340,204.253 335.527,204.149 335.695 C 204.045 335.863,204.128 336.000,204.333 336.000 C 204.538 336.000,204.619 336.140,204.514 336.311 C 204.313 336.635,205.048 338.865,205.851 340.370 C 206.107 340.848,206.220 341.336,206.102 341.453 C 205.985 341.571,207.177 341.667,208.752 341.667 L 211.615 341.667 211.997 340.417 C 212.208 339.729,212.501 338.867,212.648 338.500 C 212.796 338.133,213.088 337.410,213.296 336.892 C 213.505 336.374,213.589 335.811,213.485 335.642 C 213.380 335.472,213.478 335.333,213.703 335.333 C 213.927 335.333,214.012 335.235,213.892 335.114 C 213.771 334.993,213.809 334.730,213.977 334.528 C 214.446 333.963,215.318 331.245,215.129 330.939 C 215.036 330.789,215.120 330.667,215.314 330.667 C 215.508 330.667,215.644 330.554,215.615 330.417 C 215.587 330.279,215.812 329.609,216.115 328.927 C 216.967 327.013,216.914 326.961,214.253 327.069 C 211.671 327.174,211.101 327.630,210.872 329.776 C 210.828 330.190,210.680 330.709,210.543 330.931 C 210.406 331.152,210.396 331.333,210.521 331.333 C 210.646 331.333,210.601 331.521,210.420 331.750 C 210.084 332.177,209.585 333.796,209.530 334.638 C 209.488 335.296,208.667 335.508,208.667 334.861 C 208.667 334.571,208.535 334.333,208.375 334.333 C 208.215 334.333,208.082 333.996,208.080 333.583 C 208.076 332.718,207.040 329.350,206.604 328.785 C 206.442 328.575,206.333 328.275,206.361 328.118 C 206.541 327.116,206.259 327.000,203.631 327.000 C 201.189 327.000,200.952 327.056,201.167 327.583 M234.000 334.333 L 234.000 341.667 236.516 341.667 L 239.033 341.667 238.933 336.509 L 238.833 331.352 240.333 331.037 C 241.158 330.864,242.321 330.782,242.917 330.855 L 244.000 330.987 244.045 329.243 C 244.070 328.285,244.156 327.837,244.235 328.250 C 244.315 328.662,244.482 329.000,244.607 329.000 C 244.731 329.000,244.856 329.395,244.884 329.877 C 244.912 330.359,245.112 330.863,245.329 330.997 C 245.546 331.132,245.699 331.339,245.670 331.459 C 245.546 331.964,246.078 333.667,246.360 333.667 C 246.529 333.667,246.647 333.779,246.622 333.917 C 246.523 334.472,247.103 336.333,247.375 336.333 C 247.535 336.333,247.647 336.446,247.622 336.583 C 247.523 337.139,248.103 339.000,248.375 339.000 C 248.535 339.000,248.642 339.112,248.612 339.250 C 248.582 339.387,248.673 339.913,248.815 340.417 C 248.985 341.023,248.889 341.792,248.530 342.689 C 248.232 343.434,248.074 344.184,248.180 344.355 C 248.286 344.527,248.231 344.667,248.059 344.667 C 247.886 344.667,247.669 344.929,247.577 345.250 C 247.484 345.571,247.301 346.096,247.169 346.417 C 246.952 346.944,247.186 347.000,249.595 347.000 C 252.240 347.000,253.079 346.603,252.481 345.637 C 252.378 345.470,252.462 345.333,252.667 345.333 C 252.872 345.333,252.955 345.196,252.851 345.028 C 252.747 344.861,252.776 344.673,252.915 344.612 C 253.227 344.473,254.748 340.381,254.784 339.583 C 254.798 339.262,254.913 339.000,255.040 339.000 C 255.358 339.000,256.321 336.099,256.082 335.860 C 255.976 335.754,256.045 335.667,256.236 335.667 C 256.538 335.667,257.047 334.245,257.144 333.129 C 257.162 332.924,257.378 332.515,257.623 332.219 C 257.869 331.923,258.091 331.303,258.118 330.841 C 258.145 330.379,258.288 330.000,258.436 330.000 C 258.585 330.000,258.613 329.850,258.500 329.667 C 258.387 329.483,258.416 329.333,258.565 329.333 C 258.715 329.333,259.001 328.808,259.202 328.167 L 259.567 327.000 257.019 327.000 L 254.471 327.000 253.902 328.847 C 253.589 329.862,253.333 330.978,253.333 331.327 C 253.333 331.675,253.198 332.044,253.033 332.146 C 252.869 332.248,252.543 333.119,252.311 334.082 C 251.913 335.728,251.872 335.777,251.634 334.895 C 251.494 334.379,251.239 333.779,251.067 333.562 C 250.758 333.170,249.705 330.163,249.494 329.069 C 249.434 328.756,249.354 328.462,249.317 328.417 C 249.280 328.371,249.229 328.221,249.203 328.083 C 249.027 327.144,248.478 327.000,245.064 327.002 C 242.068 327.004,241.341 327.110,240.500 327.667 C 239.243 328.499,239.000 328.499,239.000 327.667 C 239.000 327.059,238.778 327.000,236.500 327.000 L 234.000 327.000 234.000 334.333 M292.184 327.735 C 292.314 328.156,292.553 328.550,292.713 328.612 C 292.873 328.673,292.922 328.856,292.822 329.019 C 292.721 329.181,292.897 329.806,293.212 330.407 C 293.526 331.008,293.824 331.854,293.873 332.286 C 293.922 332.719,294.196 333.331,294.482 333.647 C 294.768 333.962,294.925 334.297,294.833 334.390 C 294.572 334.650,295.357 336.667,295.719 336.667 C 295.895 336.667,295.957 336.799,295.857 336.962 C 295.640 337.312,296.297 339.333,296.628 339.333 C 296.754 339.333,296.868 339.596,296.882 339.917 C 296.895 340.237,296.991 340.904,297.094 341.397 C 297.198 341.891,297.175 342.341,297.043 342.397 C 296.652 342.565,295.291 345.995,295.489 346.315 C 295.589 346.477,295.482 346.689,295.252 346.786 C 295.022 346.883,296.088 346.934,297.621 346.898 L 300.409 346.833 301.185 344.687 C 301.612 343.507,301.897 342.436,301.818 342.308 C 301.739 342.180,301.888 341.898,302.149 341.681 C 302.579 341.324,303.130 339.665,302.997 339.126 C 302.967 339.006,303.069 338.816,303.224 338.704 C 303.575 338.449,305.082 334.372,305.117 333.583 C 305.131 333.262,305.270 333.000,305.424 333.000 C 305.579 333.000,305.621 332.863,305.518 332.695 C 305.414 332.527,305.443 332.340,305.581 332.278 C 305.720 332.217,306.156 331.267,306.551 330.167 C 306.945 329.067,307.374 327.904,307.503 327.583 C 307.753 326.964,303.681 326.680,302.784 327.255 C 302.431 327.482,301.551 329.993,301.509 330.893 C 301.500 331.109,301.391 331.387,301.269 331.509 C 301.146 331.632,301.127 331.942,301.225 332.199 C 301.324 332.456,301.245 332.667,301.051 332.667 C 300.856 332.667,300.598 333.192,300.478 333.833 C 300.215 335.237,299.978 335.291,299.388 334.081 C 298.702 332.675,297.350 328.667,297.561 328.667 C 297.664 328.667,297.542 328.419,297.291 328.115 C 297.039 327.812,296.908 327.475,297.000 327.365 C 297.092 327.256,295.992 327.123,294.556 327.069 C 291.970 326.972,291.948 326.978,292.184 327.735 M125.547 330.008 C 126.471 330.330,127.523 332.033,127.075 332.481 C 126.819 332.737,122.161 332.716,121.902 332.458 C 121.546 332.102,122.662 330.315,123.434 330.004 C 124.404 329.613,124.415 329.614,125.547 330.008 M225.772 330.049 C 228.238 331.342,227.650 332.667,224.611 332.667 C 221.798 332.667,221.543 332.468,222.536 331.050 C 223.394 329.825,224.622 329.445,225.772 330.049 M269.250 330.329 C 269.557 330.332,269.667 331.256,269.667 333.825 L 269.667 337.316 268.683 337.825 C 266.450 338.980,264.994 337.701,265.012 334.599 C 265.029 331.612,266.364 329.735,268.167 330.165 C 268.533 330.253,269.021 330.326,269.250 330.329 M142.000 336.158 C 142.000 337.470,141.883 337.710,141.024 338.154 C 139.967 338.701,138.019 338.522,137.974 337.875 C 137.960 337.669,137.900 337.246,137.840 336.936 C 137.614 335.766,138.693 335.150,141.750 334.703 C 141.887 334.683,142.000 335.338,142.000 336.158 M285.601 336.429 L 285.702 337.965 284.323 338.336 C 281.345 339.138,280.211 336.215,283.119 335.231 C 285.196 334.528,285.485 334.667,285.601 336.429 " stroke="none" fill="#b464ec" fill-rule="evenodd"></path><path id="path1" d="M153.167 140.469 C 142.817 143.312,141.841 161.169,151.773 165.987 C 153.157 166.659,154.367 167.596,155.459 168.842 C 157.650 171.341,159.127 172.069,161.530 171.836 C 164.311 171.566,166.551 170.210,166.174 169.024 C 165.939 168.284,164.547 168.051,164.154 168.687 C 163.527 169.702,160.491 170.177,159.347 169.439 C 158.520 168.905,157.000 167.432,157.000 167.165 C 157.000 167.091,157.563 166.941,158.250 166.833 C 161.982 166.244,166.194 161.989,166.859 158.138 C 166.951 157.604,167.114 156.876,167.222 156.521 C 167.577 155.352,167.359 150.668,166.875 149.037 C 164.909 142.414,159.162 138.823,153.167 140.469 M159.333 142.803 C 166.612 145.974,167.171 159.761,160.184 163.794 C 156.079 166.163,150.960 164.542,148.695 160.158 C 143.799 150.680,150.884 139.122,159.333 142.803 M184.062 148.914 C 183.271 149.187,182.118 149.931,181.500 150.568 L 180.375 151.726 180.271 150.280 C 180.146 148.551,179.571 148.364,176.666 149.107 C 175.088 149.511,174.833 149.686,174.833 150.371 C 174.833 151.200,174.937 151.226,177.167 150.955 L 178.167 150.833 178.167 157.667 L 178.167 164.500 176.833 164.500 C 175.432 164.500,175.014 164.786,175.005 165.750 C 174.999 166.503,182.991 166.647,183.607 165.905 C 184.242 165.140,183.491 164.527,182.023 164.614 L 180.667 164.694 180.667 159.470 C 180.667 152.466,182.144 150.337,187.000 150.341 C 190.907 150.345,191.333 151.182,191.333 158.846 L 191.333 164.701 189.472 164.626 C 187.573 164.549,186.871 164.944,187.233 165.886 C 187.513 166.615,196.522 166.525,196.803 165.791 C 197.154 164.878,196.430 164.384,195.019 164.573 L 193.730 164.746 193.615 158.456 C 193.445 149.152,190.858 146.568,184.062 148.914 M210.739 148.957 C 208.474 149.818,204.435 154.000,205.867 154.000 C 205.985 154.000,205.932 154.188,205.749 154.417 C 204.975 155.386,205.249 160.076,206.183 161.832 C 209.676 168.401,220.290 168.327,223.227 161.714 C 223.830 160.355,224.034 155.272,223.529 154.167 C 223.361 153.800,223.206 153.425,223.184 153.333 C 222.908 152.202,221.287 150.515,219.192 149.180 C 217.805 148.296,212.823 148.165,210.739 148.957 M231.104 149.417 C 230.460 150.279,230.816 150.831,232.125 151.000 L 233.417 151.167 234.836 155.500 C 235.616 157.883,236.682 161.169,237.203 162.802 C 239.161 168.931,240.233 168.477,243.323 160.214 L 244.552 156.928 245.457 159.381 C 245.954 160.730,246.400 161.983,246.446 162.167 C 247.456 166.158,249.729 168.184,250.653 165.917 C 251.112 164.792,253.578 156.654,253.821 155.461 C 254.436 152.450,255.152 151.171,256.283 151.061 C 257.494 150.943,257.957 150.251,257.330 149.496 C 256.840 148.906,252.342 148.793,251.311 149.345 C 250.163 149.960,250.491 151.000,251.833 151.000 C 252.938 151.000,253.371 151.518,252.768 152.121 C 252.641 152.248,252.509 152.536,252.475 152.760 C 252.416 153.155,251.493 156.435,250.486 159.833 C 250.214 160.750,249.924 161.858,249.840 162.295 C 249.503 164.055,249.434 163.971,247.950 160.000 C 244.540 150.875,244.574 151.067,246.379 150.938 C 247.484 150.858,247.856 150.685,247.947 150.207 C 248.131 149.237,247.413 149.010,244.167 149.010 C 242.517 149.010,240.964 149.138,240.717 149.295 C 239.950 149.781,240.412 150.823,241.447 150.941 C 243.318 151.156,243.762 153.560,242.520 156.746 C 242.072 157.894,241.293 160.022,240.789 161.475 C 240.285 162.928,239.839 163.978,239.797 163.808 C 239.756 163.639,239.395 162.450,238.995 161.167 C 238.594 159.883,238.209 158.608,238.138 158.333 C 238.067 158.058,237.765 157.008,237.467 156.000 C 235.957 150.897,235.987 151.186,236.960 150.997 C 237.778 150.838,237.871 150.631,237.708 149.333 C 237.645 148.825,231.488 148.902,231.104 149.417 M217.014 150.677 C 224.411 152.630,222.202 164.667,214.446 164.667 C 206.587 164.667,205.182 151.859,212.888 150.462 C 213.400 150.369,213.872 150.239,213.938 150.174 C 214.079 150.032,215.377 150.244,217.014 150.677 M170.000 195.000 L 170.000 197.667 200.000 197.667 L 230.000 197.667 230.000 195.000 L 230.000 192.333 200.000 192.333 L 170.000 192.333 170.000 195.000 M170.000 203.833 L 170.000 207.667 200.000 207.667 L 230.000 207.667 230.000 203.833 L 230.000 200.000 200.000 200.000 L 170.000 200.000 170.000 203.833 M191.651 225.404 C 190.068 225.990,188.573 227.457,187.769 229.214 C 187.157 230.550,186.727 231.055,186.059 231.221 C 182.434 232.123,179.742 235.317,179.432 239.083 C 179.331 240.311,178.907 241.919,178.400 243.000 C 176.667 246.692,177.412 251.432,180.234 254.682 C 181.106 255.685,181.235 256.090,181.236 257.833 C 181.239 262.088,184.975 266.317,188.742 266.330 C 189.355 266.332,189.840 266.621,190.229 267.216 C 192.038 269.976,195.691 270.836,198.583 269.182 L 200.000 268.372 201.417 269.182 C 204.309 270.836,207.962 269.976,209.771 267.216 C 210.159 266.623,210.648 266.331,211.258 266.326 C 214.983 266.296,218.774 262.010,218.768 257.833 C 218.766 256.087,218.892 255.687,219.766 254.682 C 222.588 251.432,223.333 246.692,221.600 243.000 C 221.093 241.919,220.669 240.311,220.568 239.083 C 220.453 237.684,220.115 236.519,219.538 235.535 C 218.272 233.375,217.082 232.466,213.768 231.129 C 213.366 230.966,212.609 230.011,212.087 229.006 C 209.918 224.829,204.466 223.635,200.976 226.572 L 199.968 227.420 199.229 226.726 C 197.565 225.162,193.991 224.539,191.651 225.404 M196.096 229.362 C 200.088 231.181,198.145 240.823,193.641 241.543 L 192.333 241.752 192.333 243.709 L 192.333 245.667 193.417 245.663 C 194.012 245.662,195.287 245.294,196.250 244.845 L 198.000 244.031 198.000 254.208 L 198.000 264.385 197.064 265.320 C 195.401 266.984,193.290 266.113,192.630 263.491 L 192.281 262.106 190.760 262.257 C 185.223 262.810,182.970 256.584,187.712 253.833 L 188.861 253.167 188.499 251.333 C 188.195 249.791,188.035 249.518,187.488 249.616 C 186.476 249.798,184.922 250.660,183.924 251.594 L 183.014 252.445 182.132 250.517 C 181.045 248.145,181.178 246.049,182.563 243.716 C 183.312 242.454,183.463 241.845,183.378 240.432 C 183.177 237.079,185.514 234.667,188.962 234.667 L 190.667 234.667 190.667 233.317 C 190.667 230.029,193.319 228.097,196.096 229.362 M207.594 229.520 C 208.651 230.261,209.333 231.749,209.333 233.317 L 209.333 234.667 211.038 234.667 C 214.486 234.667,216.823 237.079,216.622 240.432 C 216.536 241.871,216.687 242.451,217.508 243.833 C 219.708 247.539,217.915 253.911,215.134 252.270 C 212.769 250.874,209.711 250.883,207.566 252.290 L 206.652 252.890 207.881 254.405 L 209.109 255.920 210.250 255.444 C 213.346 254.150,215.810 257.287,214.013 260.234 C 213.076 261.771,211.615 262.424,209.480 262.261 L 207.714 262.126 207.368 263.502 C 206.710 266.113,204.596 266.981,202.936 265.320 L 202.000 264.385 202.000 254.208 L 202.000 244.031 203.750 244.845 C 204.713 245.294,205.987 245.662,206.583 245.663 L 207.667 245.667 207.667 243.709 L 207.667 241.752 206.359 241.543 C 203.408 241.071,202.000 238.796,202.000 234.501 C 202.000 229.810,204.646 227.455,207.594 229.520 " stroke="none" fill="#9c64e4" fill-rule="evenodd"></path><path id="path2" d="M177.658 150.886 C 177.875 150.993,178.000 153.487,178.000 157.674 L 178.000 164.293 176.830 164.431 L 175.661 164.570 176.914 164.535 L 178.167 164.500 178.167 157.694 C 178.167 152.446,178.069 150.869,177.742 150.803 C 177.508 150.755,177.470 150.793,177.658 150.886 M181.083 164.563 C 181.404 164.647,181.929 164.647,182.250 164.563 C 182.571 164.479,182.308 164.411,181.667 164.411 C 181.025 164.411,180.762 164.479,181.083 164.563 M189.088 164.573 C 189.595 164.649,190.345 164.647,190.755 164.568 C 191.165 164.489,190.750 164.426,189.833 164.429 C 188.917 164.431,188.581 164.496,189.088 164.573 M194.083 164.563 C 194.404 164.647,194.929 164.647,195.250 164.563 C 195.571 164.479,195.308 164.411,194.667 164.411 C 194.025 164.411,193.762 164.479,194.083 164.563 " stroke="none" fill="#9c64ec" fill-rule="evenodd"></path><path id="path3" d="M277.770 329.167 C 277.772 330.267,277.834 330.676,277.908 330.077 C 277.982 329.478,277.981 328.578,277.905 328.077 C 277.829 327.576,277.768 328.067,277.770 329.167 M145.375 328.132 C 145.627 328.479,146.009 329.154,146.223 329.632 C 146.486 330.219,146.621 330.317,146.640 329.935 C 146.654 329.625,146.273 328.950,145.792 328.435 C 145.311 327.921,145.123 327.784,145.375 328.132 M244.091 329.333 C 244.091 330.342,244.160 330.792,244.246 330.333 C 244.331 329.875,244.573 329.390,244.784 329.255 C 245.069 329.073,245.066 329.009,244.773 329.005 C 244.557 329.002,244.315 328.662,244.235 328.250 C 244.156 327.837,244.091 328.325,244.091 329.333 M146.802 336.500 C 146.802 339.433,146.853 340.589,146.915 339.068 C 146.977 337.546,146.976 335.146,146.914 333.734 C 146.852 332.322,146.801 333.567,146.802 336.500 M154.801 336.667 C 154.801 339.508,154.852 340.671,154.914 339.250 C 154.977 337.829,154.977 335.504,154.914 334.083 C 154.852 332.662,154.801 333.825,154.801 336.667 M218.000 338.535 C 218.000 338.719,218.562 339.386,219.249 340.018 L 220.499 341.167 219.502 340.000 C 218.954 339.358,218.392 338.691,218.253 338.517 C 218.095 338.320,218.000 338.326,218.000 338.535 " stroke="none" fill="#b864e8" fill-rule="evenodd"></path><path id="path4" d="" stroke="none" fill="#a464e8" fill-rule="evenodd"></path></g></svg>