<?xml version="1.0" standalone="no"?>
<!DOCTYPE svg PUBLIC "-//W3C//DTD SVG 20010904//EN"
 "http://www.w3.org/TR/2001/REC-SVG-20010904/DTD/svg10.dtd">
<svg version="1.0" xmlns="http://www.w3.org/2000/svg"
 width="1200.000000pt" height="1200.000000pt" viewBox="0 0 1200.000000 1200.000000"
 preserveAspectRatio="xMidYMid meet">

<g transform="translate(0.000000,1200.000000) scale(0.100000,-0.100000)"
fill="#000000" stroke="none">
<path d="M4600 7781 c-122 -40 -202 -132 -235 -273 -48 -204 33 -407 190 -479
44 -19 75 -44 112 -87 60 -68 103 -92 165 -92 74 1 167 55 140 82 -9 9 -23 7
-57 -10 -26 -13 -65 -22 -91 -22 -40 0 -49 5 -91 48 l-46 47 47 7 c144 20 251
145 276 319 27 188 -59 380 -199 442 -50 22 -168 32 -211 18z m176 -56 c124
-52 192 -187 182 -363 -11 -196 -113 -312 -274 -312 -87 0 -137 22 -191 84
-63 72 -86 151 -81 279 4 112 27 179 83 246 61 71 194 103 281 66z"/>
<path d="M5573 7539 c-57 -10 -94 -31 -131 -73 -16 -19 -33 -32 -36 -29 -3 4
-6 26 -6 50 l0 43 -37 -1 c-55 -1 -118 -22 -118 -39 0 -12 12 -14 53 -12 l52
3 0 -211 0 -210 -45 0 c-37 0 -45 -3 -45 -19 0 -26 18 -31 124 -31 62 0 98 4
111 13 27 21 9 37 -41 37 l-44 0 0 158 c0 138 2 161 19 189 44 72 179 114 253
79 56 -27 62 -50 66 -248 l4 -178 -61 0 c-64 0 -86 -14 -56 -37 27 -19 238
-18 255 2 19 22 3 35 -46 35 l-44 0 0 178 c0 165 -2 181 -22 222 -35 66 -111
96 -205 79z"/>
<path d="M6382 7538 c-135 -20 -215 -118 -215 -263 0 -166 103 -267 273 -267
115 0 202 52 246 146 27 58 32 152 12 218 -15 49 -76 120 -124 143 -49 23
-127 32 -192 23z m129 -50 c58 -19 91 -49 116 -105 48 -105 20 -237 -63 -296
-73 -51 -197 -47 -265 10 -91 77 -94 270 -6 351 50 47 147 65 218 40z"/>
<path d="M6933 7504 c-7 -20 13 -34 49 -34 27 0 29 -5 98 -217 39 -119 76
-223 82 -230 6 -8 23 -13 37 -11 24 3 31 16 80 146 30 79 57 139 61 135 4 -4
24 -57 45 -118 52 -148 61 -165 89 -165 13 0 28 6 34 13 5 6 39 109 74 227
l63 214 33 7 c40 8 46 14 39 34 -9 23 -175 22 -184 -1 -7 -18 12 -34 43 -34
20 0 19 -8 -35 -200 -31 -110 -58 -200 -61 -200 -5 0 -140 380 -140 393 0 4
13 7 29 7 43 0 61 10 61 31 0 18 -7 20 -102 17 -88 -3 -103 -6 -106 -20 -2
-12 6 -20 29 -26 27 -6 35 -16 47 -51 14 -42 14 -45 -38 -190 -29 -80 -56
-150 -61 -155 -4 -5 -17 22 -28 60 -11 38 -38 128 -60 199 l-39 130 30 8 c20
5 28 13 26 25 -3 14 -18 17 -96 20 -78 2 -93 0 -99 -14z"/>
<path d="M5100 6150 l0 -70 900 0 900 0 0 70 0 70 -900 0 -900 0 0 -70z"/>
<path d="M5100 5890 l0 -110 900 0 900 0 0 110 0 110 -900 0 -900 0 0 -110z"/>
<path d="M5777 5236 c-57 -16 -109 -62 -142 -127 -18 -35 -31 -48 -52 -52 -48
-9 -126 -69 -157 -120 -22 -36 -31 -66 -36 -120 -5 -46 -16 -89 -31 -117 -35
-67 -34 -185 3 -255 14 -27 40 -64 57 -82 28 -28 31 -36 25 -71 -8 -53 17
-137 56 -184 35 -42 120 -88 165 -88 24 0 35 -7 49 -30 47 -81 152 -106 239
-58 l47 27 47 -27 c86 -48 192 -23 239 56 13 24 26 31 60 35 120 13 229 151
209 267 -5 33 -2 42 25 71 17 19 43 57 58 84 22 42 27 63 27 130 0 68 -4 88
-28 133 -19 37 -27 69 -27 103 0 89 -50 171 -134 220 -28 16 -59 29 -68 29
-11 0 -27 19 -42 48 -69 135 -206 175 -322 93 l-43 -30 -52 34 c-28 19 -58 35
-68 35 -9 0 -25 2 -36 5 -11 2 -42 -2 -68 -9z m114 -112 c42 -21 59 -68 59
-161 -1 -122 -51 -203 -135 -219 -34 -6 -35 -7 -35 -55 0 -47 1 -49 28 -49 15
0 51 11 80 25 30 14 56 25 58 25 2 0 4 -139 4 -309 l0 -309 -26 -31 c-47 -56
-134 -34 -150 37 -11 52 -11 52 -58 46 -55 -8 -123 22 -149 65 -40 68 -11 173
57 205 l33 16 -10 49 c-9 47 -11 49 -33 41 -45 -17 -79 -38 -98 -59 -23 -25
-30 -21 -57 32 -15 28 -21 60 -21 102 0 59 26 134 52 150 5 3 7 25 3 50 -8 61
18 127 64 162 28 21 49 28 99 31 l64 4 0 52 c0 28 6 58 13 66 39 50 102 63
158 34z m339 -1 c39 -26 48 -44 55 -99 l7 -52 58 -4 c104 -7 171 -89 157 -193
-4 -25 -2 -47 3 -50 6 -4 20 -25 31 -48 40 -78 26 -189 -32 -253 l-19 -21 -58
29 c-47 25 -65 29 -104 24 -49 -5 -108 -30 -108 -45 0 -5 11 -23 25 -39 24
-29 28 -30 85 -25 56 5 60 4 91 -26 28 -29 31 -36 26 -77 -9 -80 -84 -133
-168 -120 -42 7 -42 6 -53 -46 -16 -71 -103 -93 -150 -37 l-26 31 0 309 c0
170 2 309 4 309 2 0 28 -11 58 -25 29 -14 65 -25 81 -25 26 0 27 2 27 49 0 48
0 49 -37 56 -47 8 -117 78 -126 125 -11 51 -8 164 4 199 22 62 115 92 169 54z"/>
</g>
</svg>
